# xmcd
#
# Track frame offsets:
#	150
#	15055
#	28972
#	42632
#	60460
#	72492
#	84917
#	103722
#	118655
#	132942
#	144150
#	154530
#
# Disc length: 2292 seconds
#
# Revision: 1
# Processed by: cddbd v1.5.2PL0 Copyright (c) Steve Scherf et al.
# Submitted via: audiograbber 1.83.01
#
DISCID=9708f20c
DTITLE=George and Lucky Riders - Ich Möcht So Gern
DYEAR=1992
DGENRE=Country
TTITLE0=George and Lucky Riders - Hübsche Mädchen Guter Wein
TTITLE1=George and Lucky Riders - Ich Möcht So Gern Dave Dudley Hör'n
TTITLE2=George and Lucky Riders - Mitglied Im Country Club
TTITLE3=George and Lucky Riders - Die Frau Eines Truckers
TTITLE4=George and Lucky Riders - Ich Zähle Meine Schäfchen
TTITLE5=George and Lucky Riders - Rock 'N' Roll Fiddler
TTITLE6=George and Lucky Riders - Mädchen Aus Dem Honky Tonk Saloon
TTITLE7=George and Lucky Riders - Die Kneipe Zu Hause
TTITLE8=George and Lucky Riders - Mary
TTITLE9=George and Lucky Riders - Die Frau Auf Der Bank
TTITLE10=George and Lucky Riders - Rock A Boogie Billy
TTITLE11=George and Lucky Riders - Welcome Home
EXTD=
EXTT0=
EXTT1=
EXTT2=
EXTT3=
EXTT4=
EXTT5=
EXTT6=
EXTT7=
EXTT8=
EXTT9=
EXTT10=
EXTT11=
PLAYORDER=
